<mxfile host="app.diagrams.net" agent="Mozilla/5.0 (Macintosh; Intel Mac OS X 10_15_7) AppleWebKit/537.36 (KHTML, like Gecko) Chrome/130.0.0.0 Safari/537.36" version="24.8.6" pages="4">
  <diagram name="智约" id="om-Vu1i6G6P90m5iKTyM">
    <mxGraphModel dx="933" dy="520" grid="1" gridSize="10" guides="1" tooltips="1" connect="1" arrows="1" fold="1" page="1" pageScale="1" pageWidth="827" pageHeight="1169" math="0" shadow="0">
      <root>
        <mxCell id="0" />
        <mxCell id="1" parent="0" />
        <mxCell id="ZnGheE9chD6Q0UJB1SAp-3" value="" style="edgeStyle=orthogonalEdgeStyle;rounded=0;orthogonalLoop=1;jettySize=auto;html=1;" edge="1" parent="1" source="ZnGheE9chD6Q0UJB1SAp-1" target="ZnGheE9chD6Q0UJB1SAp-2">
          <mxGeometry relative="1" as="geometry" />
        </mxCell>
        <mxCell id="ZnGheE9chD6Q0UJB1SAp-1" value="" style="html=1;verticalLabelPosition=bottom;align=center;labelBackgroundColor=#ffffff;verticalAlign=top;strokeWidth=2;strokeColor=#0080F0;shadow=0;dashed=0;shape=mxgraph.ios7.icons.user;" vertex="1" parent="1">
          <mxGeometry x="377" y="80" width="30" height="30" as="geometry" />
        </mxCell>
        <mxCell id="ZnGheE9chD6Q0UJB1SAp-20" value="" style="edgeStyle=orthogonalEdgeStyle;rounded=0;orthogonalLoop=1;jettySize=auto;html=1;" edge="1" parent="1" source="ZnGheE9chD6Q0UJB1SAp-2" target="ZnGheE9chD6Q0UJB1SAp-19">
          <mxGeometry relative="1" as="geometry" />
        </mxCell>
        <mxCell id="ZnGheE9chD6Q0UJB1SAp-2" value="预约工单推荐" style="whiteSpace=wrap;html=1;verticalAlign=top;strokeColor=#0080F0;labelBackgroundColor=#ffffff;strokeWidth=2;shadow=0;dashed=0;fontSize=10;" vertex="1" parent="1">
          <mxGeometry x="347" y="140" width="90" height="30" as="geometry" />
        </mxCell>
        <mxCell id="ZnGheE9chD6Q0UJB1SAp-8" style="edgeStyle=orthogonalEdgeStyle;rounded=0;orthogonalLoop=1;jettySize=auto;html=1;" edge="1" parent="1" source="ZnGheE9chD6Q0UJB1SAp-4" target="ZnGheE9chD6Q0UJB1SAp-6">
          <mxGeometry relative="1" as="geometry" />
        </mxCell>
        <mxCell id="ZnGheE9chD6Q0UJB1SAp-9" value="" style="edgeStyle=orthogonalEdgeStyle;rounded=0;orthogonalLoop=1;jettySize=auto;html=1;" edge="1" parent="1" source="ZnGheE9chD6Q0UJB1SAp-4" target="ZnGheE9chD6Q0UJB1SAp-2">
          <mxGeometry relative="1" as="geometry" />
        </mxCell>
        <mxCell id="ZnGheE9chD6Q0UJB1SAp-4" value="优先级计算" style="image;aspect=fixed;html=1;points=[];align=center;fontSize=10;image=img/lib/azure2/compute/Cloud_Services_Classic.svg;" vertex="1" parent="1">
          <mxGeometry x="496.5" y="135" width="56.77" height="41" as="geometry" />
        </mxCell>
        <mxCell id="ZnGheE9chD6Q0UJB1SAp-6" value="算法规则" style="sketch=0;outlineConnect=0;fontColor=#232F3E;gradientColor=none;fillColor=#2d8ae1;strokeColor=none;dashed=0;verticalLabelPosition=bottom;verticalAlign=top;align=center;html=1;fontSize=10;fontStyle=0;aspect=fixed;pointerEvents=1;shape=mxgraph.aws4.waf_managed_rule;" vertex="1" parent="1">
          <mxGeometry x="606.5" y="134" width="42" height="42" as="geometry" />
        </mxCell>
        <mxCell id="ZnGheE9chD6Q0UJB1SAp-15" style="edgeStyle=orthogonalEdgeStyle;rounded=0;orthogonalLoop=1;jettySize=auto;html=1;dashed=1;dashPattern=1 1;" edge="1" parent="1" source="ZnGheE9chD6Q0UJB1SAp-10" target="ZnGheE9chD6Q0UJB1SAp-11">
          <mxGeometry relative="1" as="geometry" />
        </mxCell>
        <mxCell id="ZnGheE9chD6Q0UJB1SAp-21" style="edgeStyle=orthogonalEdgeStyle;rounded=0;orthogonalLoop=1;jettySize=auto;html=1;entryX=0;entryY=0.5;entryDx=0;entryDy=0;" edge="1" parent="1" source="ZnGheE9chD6Q0UJB1SAp-10" target="ZnGheE9chD6Q0UJB1SAp-19">
          <mxGeometry relative="1" as="geometry" />
        </mxCell>
        <mxCell id="ZnGheE9chD6Q0UJB1SAp-22" value="分析处理" style="edgeLabel;html=1;align=center;verticalAlign=middle;resizable=0;points=[];" vertex="1" connectable="0" parent="ZnGheE9chD6Q0UJB1SAp-21">
          <mxGeometry x="-0.1259" y="-1" relative="1" as="geometry">
            <mxPoint as="offset" />
          </mxGeometry>
        </mxCell>
        <mxCell id="ZnGheE9chD6Q0UJB1SAp-26" style="edgeStyle=orthogonalEdgeStyle;rounded=0;orthogonalLoop=1;jettySize=auto;html=1;dashed=1;dashPattern=1 1;" edge="1" parent="1" source="ZnGheE9chD6Q0UJB1SAp-10" target="ZnGheE9chD6Q0UJB1SAp-14">
          <mxGeometry relative="1" as="geometry" />
        </mxCell>
        <mxCell id="ZnGheE9chD6Q0UJB1SAp-31" style="edgeStyle=orthogonalEdgeStyle;rounded=0;orthogonalLoop=1;jettySize=auto;html=1;entryX=0;entryY=0.5;entryDx=0;entryDy=0;" edge="1" parent="1" source="ZnGheE9chD6Q0UJB1SAp-10" target="ZnGheE9chD6Q0UJB1SAp-28">
          <mxGeometry relative="1" as="geometry">
            <Array as="points">
              <mxPoint x="240" y="315" />
            </Array>
          </mxGeometry>
        </mxCell>
        <mxCell id="ZnGheE9chD6Q0UJB1SAp-32" value="提供智能能力" style="edgeLabel;html=1;align=center;verticalAlign=middle;resizable=0;points=[];fontSize=10;" vertex="1" connectable="0" parent="ZnGheE9chD6Q0UJB1SAp-31">
          <mxGeometry x="0.1762" y="-1" relative="1" as="geometry">
            <mxPoint as="offset" />
          </mxGeometry>
        </mxCell>
        <mxCell id="ZnGheE9chD6Q0UJB1SAp-43" style="edgeStyle=orthogonalEdgeStyle;rounded=0;orthogonalLoop=1;jettySize=auto;html=1;" edge="1" parent="1" source="ZnGheE9chD6Q0UJB1SAp-10" target="ZnGheE9chD6Q0UJB1SAp-42">
          <mxGeometry relative="1" as="geometry">
            <Array as="points">
              <mxPoint x="220" y="385" />
            </Array>
          </mxGeometry>
        </mxCell>
        <mxCell id="ZnGheE9chD6Q0UJB1SAp-44" value="画像分析" style="edgeLabel;html=1;align=center;verticalAlign=middle;resizable=0;points=[];fontSize=10;" vertex="1" connectable="0" parent="ZnGheE9chD6Q0UJB1SAp-43">
          <mxGeometry x="0.5775" y="2" relative="1" as="geometry">
            <mxPoint as="offset" />
          </mxGeometry>
        </mxCell>
        <mxCell id="ZnGheE9chD6Q0UJB1SAp-10" value="AI助理" style="image;sketch=0;aspect=fixed;html=1;points=[];align=center;fontSize=10;image=img/lib/mscae/Cognitive_Services.svg;" vertex="1" parent="1">
          <mxGeometry x="210" y="225" width="50" height="30" as="geometry" />
        </mxCell>
        <mxCell id="ZnGheE9chD6Q0UJB1SAp-11" value="知识库" style="sketch=0;shadow=0;dashed=0;html=1;strokeColor=none;fillColor=#3276bc;labelPosition=center;verticalLabelPosition=bottom;verticalAlign=top;outlineConnect=0;align=center;shape=mxgraph.office.databases.address_book_store;fontSize=10;" vertex="1" parent="1">
          <mxGeometry x="161.11" y="180" width="27.78" height="30" as="geometry" />
        </mxCell>
        <mxCell id="ZnGheE9chD6Q0UJB1SAp-14" value="大模型" style="sketch=0;outlineConnect=0;fontColor=#232F3E;gradientColor=none;fillColor=#3276bc;strokeColor=none;dashed=0;verticalLabelPosition=bottom;verticalAlign=top;align=center;html=1;fontSize=10;fontStyle=0;aspect=fixed;pointerEvents=1;shape=mxgraph.aws4.sagemaker_model;" vertex="1" parent="1">
          <mxGeometry x="160" y="270" width="30" height="30" as="geometry" />
        </mxCell>
        <mxCell id="ZnGheE9chD6Q0UJB1SAp-29" value="" style="edgeStyle=orthogonalEdgeStyle;rounded=0;orthogonalLoop=1;jettySize=auto;html=1;" edge="1" parent="1" source="ZnGheE9chD6Q0UJB1SAp-19" target="ZnGheE9chD6Q0UJB1SAp-28">
          <mxGeometry relative="1" as="geometry" />
        </mxCell>
        <mxCell id="ZnGheE9chD6Q0UJB1SAp-19" value="&amp;nbsp; &amp;nbsp;重点工作和红线提醒" style="whiteSpace=wrap;html=1;verticalAlign=top;strokeColor=#0080F0;labelBackgroundColor=#ffffff;strokeWidth=2;shadow=0;dashed=0;fontSize=10;" vertex="1" parent="1">
          <mxGeometry x="325" y="225" width="135" height="30" as="geometry" />
        </mxCell>
        <mxCell id="ZnGheE9chD6Q0UJB1SAp-23" value="" style="shape=image;html=1;verticalAlign=top;verticalLabelPosition=bottom;labelBackgroundColor=#ffffff;imageAspect=0;aspect=fixed;image=https://cdn2.iconfinder.com/data/icons/user-interface-169/32/bell-128.png;imageBackground=default;fillStyle=solid;" vertex="1" parent="1">
          <mxGeometry x="329" y="231" width="18" height="18" as="geometry" />
        </mxCell>
        <mxCell id="ZnGheE9chD6Q0UJB1SAp-49" value="" style="edgeStyle=orthogonalEdgeStyle;rounded=0;orthogonalLoop=1;jettySize=auto;html=1;" edge="1" parent="1" source="ZnGheE9chD6Q0UJB1SAp-28">
          <mxGeometry relative="1" as="geometry">
            <mxPoint x="522.5" y="315" as="targetPoint" />
          </mxGeometry>
        </mxCell>
        <mxCell id="ZnGheE9chD6Q0UJB1SAp-28" value="上门体检" style="whiteSpace=wrap;html=1;verticalAlign=top;strokeColor=#0080F0;labelBackgroundColor=#ffffff;strokeWidth=2;shadow=0;dashed=0;fontSize=10;" vertex="1" parent="1">
          <mxGeometry x="342.5" y="300" width="100" height="30" as="geometry" />
        </mxCell>
        <mxCell id="ZnGheE9chD6Q0UJB1SAp-33" value="" style="points=[];aspect=fixed;html=1;align=center;shadow=0;dashed=0;fillColor=#3276bc;strokeColor=none;shape=mxgraph.alibaba_cloud.openapi_explorer;" vertex="1" parent="1">
          <mxGeometry x="225" y="152" width="30" height="30" as="geometry" />
        </mxCell>
        <mxCell id="ZnGheE9chD6Q0UJB1SAp-34" style="edgeStyle=orthogonalEdgeStyle;rounded=0;orthogonalLoop=1;jettySize=auto;html=1;entryX=0.343;entryY=1.021;entryDx=0;entryDy=0;entryPerimeter=0;" edge="1" parent="1" source="ZnGheE9chD6Q0UJB1SAp-10" target="ZnGheE9chD6Q0UJB1SAp-33">
          <mxGeometry relative="1" as="geometry" />
        </mxCell>
        <mxCell id="ZnGheE9chD6Q0UJB1SAp-36" value="能力" style="text;align=center;verticalAlign=middle;resizable=0;points=[];autosize=1;strokeColor=none;fillColor=none;fontSize=10;spacing=0;textShadow=0;html=1;labelBackgroundColor=default;" vertex="1" parent="1">
          <mxGeometry x="215" y="190" width="40" height="20" as="geometry" />
        </mxCell>
        <mxCell id="ZnGheE9chD6Q0UJB1SAp-41" value="" style="points=[];aspect=fixed;html=1;align=center;shadow=0;dashed=0;fillColor=#333333;strokeColor=none;shape=mxgraph.alibaba_cloud.esign;" vertex="1" parent="1">
          <mxGeometry x="347" y="307.19" width="14.19" height="15.62" as="geometry" />
        </mxCell>
        <mxCell id="ZnGheE9chD6Q0UJB1SAp-46" value="" style="edgeStyle=orthogonalEdgeStyle;rounded=0;orthogonalLoop=1;jettySize=auto;html=1;" edge="1" parent="1" source="ZnGheE9chD6Q0UJB1SAp-42" target="ZnGheE9chD6Q0UJB1SAp-45">
          <mxGeometry relative="1" as="geometry" />
        </mxCell>
        <mxCell id="ZnGheE9chD6Q0UJB1SAp-47" value="画像矩阵池" style="edgeLabel;html=1;align=center;verticalAlign=middle;resizable=0;points=[];fontSize=10;" vertex="1" connectable="0" parent="ZnGheE9chD6Q0UJB1SAp-46">
          <mxGeometry x="0.0667" y="2" relative="1" as="geometry">
            <mxPoint as="offset" />
          </mxGeometry>
        </mxCell>
        <mxCell id="ZnGheE9chD6Q0UJB1SAp-42" value="" style="sketch=0;outlineConnect=0;fontColor=#232F3E;gradientColor=none;fillColor=#232F3D;strokeColor=none;dashed=0;verticalLabelPosition=bottom;verticalAlign=top;align=center;html=1;fontSize=12;fontStyle=0;aspect=fixed;pointerEvents=1;shape=mxgraph.aws4.users;" vertex="1" parent="1">
          <mxGeometry x="300" y="370" width="30" height="30" as="geometry" />
        </mxCell>
        <mxCell id="ZnGheE9chD6Q0UJB1SAp-50" style="edgeStyle=orthogonalEdgeStyle;rounded=0;orthogonalLoop=1;jettySize=auto;html=1;" edge="1" parent="1" source="ZnGheE9chD6Q0UJB1SAp-45">
          <mxGeometry relative="1" as="geometry">
            <mxPoint x="572.5238095238094" y="330" as="targetPoint" />
          </mxGeometry>
        </mxCell>
        <mxCell id="ZnGheE9chD6Q0UJB1SAp-51" value="基于客户画像预约推荐" style="edgeLabel;html=1;align=center;verticalAlign=middle;resizable=0;points=[];fontSize=10;" vertex="1" connectable="0" parent="ZnGheE9chD6Q0UJB1SAp-50">
          <mxGeometry x="-0.123" y="-2" relative="1" as="geometry">
            <mxPoint as="offset" />
          </mxGeometry>
        </mxCell>
        <mxCell id="ZnGheE9chD6Q0UJB1SAp-45" value="" style="image;aspect=fixed;perimeter=ellipsePerimeter;html=1;align=center;shadow=0;dashed=0;spacingTop=3;image=img/lib/active_directory/database_cube.svg;" vertex="1" parent="1">
          <mxGeometry x="414" y="360" width="45" height="50" as="geometry" />
        </mxCell>
        <mxCell id="ZnGheE9chD6Q0UJB1SAp-52" value="精准预约" style="whiteSpace=wrap;html=1;verticalAlign=top;strokeColor=#0080F0;labelBackgroundColor=#ffffff;strokeWidth=2;shadow=0;dashed=0;fontSize=10;" vertex="1" parent="1">
          <mxGeometry x="522.5" y="300" width="100" height="30" as="geometry" />
        </mxCell>
      </root>
    </mxGraphModel>
  </diagram>
  <diagram name="智访" id="m2pEIFdIdJ7ozX5-S0lA">
    <mxGraphModel dx="1140" dy="636" grid="1" gridSize="10" guides="1" tooltips="1" connect="1" arrows="1" fold="1" page="1" pageScale="1" pageWidth="827" pageHeight="1169" math="0" shadow="0">
      <root>
        <mxCell id="WscRIhe3EYZhFc4JABDw-0" />
        <mxCell id="WscRIhe3EYZhFc4JABDw-1" parent="WscRIhe3EYZhFc4JABDw-0" />
        <mxCell id="WscRIhe3EYZhFc4JABDw-10" style="edgeStyle=orthogonalEdgeStyle;rounded=0;orthogonalLoop=1;jettySize=auto;html=1;dashed=1;dashPattern=1 1;" edge="1" parent="WscRIhe3EYZhFc4JABDw-1" source="WscRIhe3EYZhFc4JABDw-18" target="WscRIhe3EYZhFc4JABDw-19">
          <mxGeometry relative="1" as="geometry" />
        </mxCell>
        <mxCell id="WscRIhe3EYZhFc4JABDw-13" style="edgeStyle=orthogonalEdgeStyle;rounded=0;orthogonalLoop=1;jettySize=auto;html=1;dashed=1;dashPattern=1 1;" edge="1" parent="WscRIhe3EYZhFc4JABDw-1" source="WscRIhe3EYZhFc4JABDw-18" target="WscRIhe3EYZhFc4JABDw-20">
          <mxGeometry relative="1" as="geometry" />
        </mxCell>
        <mxCell id="WscRIhe3EYZhFc4JABDw-16" style="edgeStyle=orthogonalEdgeStyle;rounded=0;orthogonalLoop=1;jettySize=auto;html=1;" edge="1" parent="WscRIhe3EYZhFc4JABDw-1" source="WscRIhe3EYZhFc4JABDw-18" target="WscRIhe3EYZhFc4JABDw-32">
          <mxGeometry relative="1" as="geometry">
            <mxPoint x="310" y="240" as="targetPoint" />
            <Array as="points" />
          </mxGeometry>
        </mxCell>
        <mxCell id="WscRIhe3EYZhFc4JABDw-17" value="画像分析" style="edgeLabel;html=1;align=center;verticalAlign=middle;resizable=0;points=[];fontSize=10;" vertex="1" connectable="0" parent="WscRIhe3EYZhFc4JABDw-16">
          <mxGeometry x="0.5775" y="2" relative="1" as="geometry">
            <mxPoint x="-25" y="2" as="offset" />
          </mxGeometry>
        </mxCell>
        <mxCell id="x2RgvOCPO0mGEM-d00oI-9" style="edgeStyle=orthogonalEdgeStyle;rounded=0;orthogonalLoop=1;jettySize=auto;html=1;entryX=0;entryY=0.5;entryDx=0;entryDy=0;" edge="1" parent="WscRIhe3EYZhFc4JABDw-1" source="WscRIhe3EYZhFc4JABDw-18" target="x2RgvOCPO0mGEM-d00oI-10">
          <mxGeometry relative="1" as="geometry">
            <mxPoint x="235" y="500" as="targetPoint" />
            <Array as="points">
              <mxPoint x="230" y="495" />
            </Array>
          </mxGeometry>
        </mxCell>
        <mxCell id="x2RgvOCPO0mGEM-d00oI-16" value="结合Ivr平台自动发起回访" style="edgeLabel;html=1;align=center;verticalAlign=middle;resizable=0;points=[];" vertex="1" connectable="0" parent="x2RgvOCPO0mGEM-d00oI-9">
          <mxGeometry x="0.4503" y="3" relative="1" as="geometry">
            <mxPoint as="offset" />
          </mxGeometry>
        </mxCell>
        <mxCell id="WscRIhe3EYZhFc4JABDw-18" value="AI助理" style="image;sketch=0;aspect=fixed;html=1;points=[];align=center;fontSize=10;image=img/lib/mscae/Cognitive_Services.svg;" vertex="1" parent="WscRIhe3EYZhFc4JABDw-1">
          <mxGeometry x="210" y="225" width="50" height="30" as="geometry" />
        </mxCell>
        <mxCell id="WscRIhe3EYZhFc4JABDw-19" value="知识库" style="sketch=0;shadow=0;dashed=0;html=1;strokeColor=none;fillColor=#3276bc;labelPosition=center;verticalLabelPosition=bottom;verticalAlign=top;outlineConnect=0;align=center;shape=mxgraph.office.databases.address_book_store;fontSize=10;" vertex="1" parent="WscRIhe3EYZhFc4JABDw-1">
          <mxGeometry x="161.11" y="180" width="27.78" height="30" as="geometry" />
        </mxCell>
        <mxCell id="WscRIhe3EYZhFc4JABDw-20" value="大模型" style="sketch=0;outlineConnect=0;fontColor=#232F3E;gradientColor=none;fillColor=#3276bc;strokeColor=none;dashed=0;verticalLabelPosition=bottom;verticalAlign=top;align=center;html=1;fontSize=10;fontStyle=0;aspect=fixed;pointerEvents=1;shape=mxgraph.aws4.sagemaker_model;" vertex="1" parent="WscRIhe3EYZhFc4JABDw-1">
          <mxGeometry x="160" y="270" width="30" height="30" as="geometry" />
        </mxCell>
        <mxCell id="WscRIhe3EYZhFc4JABDw-26" value="" style="points=[];aspect=fixed;html=1;align=center;shadow=0;dashed=0;fillColor=#3276bc;strokeColor=none;shape=mxgraph.alibaba_cloud.openapi_explorer;" vertex="1" parent="WscRIhe3EYZhFc4JABDw-1">
          <mxGeometry x="225" y="152" width="30" height="30" as="geometry" />
        </mxCell>
        <mxCell id="WscRIhe3EYZhFc4JABDw-27" style="edgeStyle=orthogonalEdgeStyle;rounded=0;orthogonalLoop=1;jettySize=auto;html=1;entryX=0.343;entryY=1.021;entryDx=0;entryDy=0;entryPerimeter=0;" edge="1" parent="WscRIhe3EYZhFc4JABDw-1" source="WscRIhe3EYZhFc4JABDw-18" target="WscRIhe3EYZhFc4JABDw-26">
          <mxGeometry relative="1" as="geometry" />
        </mxCell>
        <mxCell id="WscRIhe3EYZhFc4JABDw-28" value="能力" style="text;align=center;verticalAlign=middle;resizable=0;points=[];autosize=1;strokeColor=none;fillColor=none;fontSize=10;spacing=0;textShadow=0;html=1;labelBackgroundColor=default;" vertex="1" parent="WscRIhe3EYZhFc4JABDw-1">
          <mxGeometry x="215" y="190" width="40" height="20" as="geometry" />
        </mxCell>
        <mxCell id="WscRIhe3EYZhFc4JABDw-30" value="" style="edgeStyle=orthogonalEdgeStyle;rounded=0;orthogonalLoop=1;jettySize=auto;html=1;" edge="1" parent="WscRIhe3EYZhFc4JABDw-1" source="WscRIhe3EYZhFc4JABDw-32" target="WscRIhe3EYZhFc4JABDw-35">
          <mxGeometry relative="1" as="geometry" />
        </mxCell>
        <mxCell id="WscRIhe3EYZhFc4JABDw-31" value="画像矩阵池" style="edgeLabel;html=1;align=center;verticalAlign=middle;resizable=0;points=[];fontSize=10;" vertex="1" connectable="0" parent="WscRIhe3EYZhFc4JABDw-30">
          <mxGeometry x="0.0667" y="2" relative="1" as="geometry">
            <mxPoint as="offset" />
          </mxGeometry>
        </mxCell>
        <mxCell id="WscRIhe3EYZhFc4JABDw-32" value="" style="sketch=0;outlineConnect=0;fontColor=#232F3E;gradientColor=none;fillColor=#232F3D;strokeColor=none;dashed=0;verticalLabelPosition=bottom;verticalAlign=top;align=center;html=1;fontSize=12;fontStyle=0;aspect=fixed;pointerEvents=1;shape=mxgraph.aws4.users;" vertex="1" parent="WscRIhe3EYZhFc4JABDw-1">
          <mxGeometry x="330" y="225" width="30" height="30" as="geometry" />
        </mxCell>
        <mxCell id="WscRIhe3EYZhFc4JABDw-33" style="edgeStyle=orthogonalEdgeStyle;rounded=0;orthogonalLoop=1;jettySize=auto;html=1;entryX=0;entryY=0.5;entryDx=0;entryDy=0;" edge="1" parent="WscRIhe3EYZhFc4JABDw-1" source="WscRIhe3EYZhFc4JABDw-35" target="x2RgvOCPO0mGEM-d00oI-0">
          <mxGeometry relative="1" as="geometry">
            <mxPoint x="572.5238095238094" y="330" as="targetPoint" />
          </mxGeometry>
        </mxCell>
        <mxCell id="WscRIhe3EYZhFc4JABDw-34" value="用户标注" style="edgeLabel;html=1;align=center;verticalAlign=middle;resizable=0;points=[];fontSize=10;" vertex="1" connectable="0" parent="WscRIhe3EYZhFc4JABDw-33">
          <mxGeometry x="-0.123" y="-2" relative="1" as="geometry">
            <mxPoint as="offset" />
          </mxGeometry>
        </mxCell>
        <mxCell id="WscRIhe3EYZhFc4JABDw-35" value="" style="image;aspect=fixed;perimeter=ellipsePerimeter;html=1;align=center;shadow=0;dashed=0;spacingTop=3;image=img/lib/active_directory/database_cube.svg;" vertex="1" parent="WscRIhe3EYZhFc4JABDw-1">
          <mxGeometry x="322.5" y="290" width="45" height="50" as="geometry" />
        </mxCell>
        <mxCell id="x2RgvOCPO0mGEM-d00oI-2" value="" style="edgeStyle=orthogonalEdgeStyle;rounded=0;orthogonalLoop=1;jettySize=auto;html=1;entryX=1;entryY=0.5;entryDx=0;entryDy=0;" edge="1" parent="WscRIhe3EYZhFc4JABDw-1" source="x2RgvOCPO0mGEM-d00oI-0" target="x2RgvOCPO0mGEM-d00oI-1">
          <mxGeometry relative="1" as="geometry">
            <Array as="points">
              <mxPoint x="450" y="375" />
            </Array>
          </mxGeometry>
        </mxCell>
        <mxCell id="x2RgvOCPO0mGEM-d00oI-0" value="" style="image;aspect=fixed;perimeter=ellipsePerimeter;html=1;align=center;shadow=0;dashed=0;spacingTop=3;image=img/lib/active_directory/users.svg;" vertex="1" parent="WscRIhe3EYZhFc4JABDw-1">
          <mxGeometry x="440" y="290" width="33" height="50" as="geometry" />
        </mxCell>
        <mxCell id="x2RgvOCPO0mGEM-d00oI-5" value="" style="edgeStyle=orthogonalEdgeStyle;rounded=0;orthogonalLoop=1;jettySize=auto;html=1;" edge="1" parent="WscRIhe3EYZhFc4JABDw-1" source="x2RgvOCPO0mGEM-d00oI-1" target="x2RgvOCPO0mGEM-d00oI-4">
          <mxGeometry relative="1" as="geometry" />
        </mxCell>
        <mxCell id="x2RgvOCPO0mGEM-d00oI-1" value="用户画像输出" style="whiteSpace=wrap;html=1;verticalAlign=top;labelBackgroundColor=default;shadow=0;dashed=0;spacingTop=3;fontSize=10;" vertex="1" parent="WscRIhe3EYZhFc4JABDw-1">
          <mxGeometry x="285" y="360" width="120" height="30" as="geometry" />
        </mxCell>
        <mxCell id="x2RgvOCPO0mGEM-d00oI-4" value="满意度提升建议" style="whiteSpace=wrap;html=1;verticalAlign=top;labelBackgroundColor=default;shadow=0;dashed=0;spacingTop=3;fontSize=10;" vertex="1" parent="WscRIhe3EYZhFc4JABDw-1">
          <mxGeometry x="285" y="420" width="120" height="30" as="geometry" />
        </mxCell>
        <mxCell id="x2RgvOCPO0mGEM-d00oI-18" value="" style="edgeStyle=orthogonalEdgeStyle;rounded=0;orthogonalLoop=1;jettySize=auto;html=1;" edge="1" parent="WscRIhe3EYZhFc4JABDw-1" source="x2RgvOCPO0mGEM-d00oI-10" target="x2RgvOCPO0mGEM-d00oI-17">
          <mxGeometry relative="1" as="geometry" />
        </mxCell>
        <mxCell id="x2RgvOCPO0mGEM-d00oI-10" value="自动回访" style="whiteSpace=wrap;html=1;verticalAlign=top;labelBackgroundColor=default;shadow=0;dashed=0;spacingTop=3;fontSize=10;" vertex="1" parent="WscRIhe3EYZhFc4JABDw-1">
          <mxGeometry x="570" y="480" width="120" height="30" as="geometry" />
        </mxCell>
        <mxCell id="x2RgvOCPO0mGEM-d00oI-14" style="edgeStyle=orthogonalEdgeStyle;rounded=0;orthogonalLoop=1;jettySize=auto;html=1;entryX=0;entryY=0.5;entryDx=0;entryDy=0;" edge="1" parent="WscRIhe3EYZhFc4JABDw-1" source="x2RgvOCPO0mGEM-d00oI-12" target="x2RgvOCPO0mGEM-d00oI-10">
          <mxGeometry relative="1" as="geometry" />
        </mxCell>
        <mxCell id="x2RgvOCPO0mGEM-d00oI-15" value="结合回访策略" style="edgeLabel;html=1;align=center;verticalAlign=middle;resizable=0;points=[];" vertex="1" connectable="0" parent="x2RgvOCPO0mGEM-d00oI-14">
          <mxGeometry x="-0.3728" y="1" relative="1" as="geometry">
            <mxPoint as="offset" />
          </mxGeometry>
        </mxCell>
        <mxCell id="x2RgvOCPO0mGEM-d00oI-12" value="回访策略" style="whiteSpace=wrap;html=1;verticalAlign=top;labelBackgroundColor=default;shadow=0;dashed=0;spacingTop=3;fontSize=10;" vertex="1" parent="WscRIhe3EYZhFc4JABDw-1">
          <mxGeometry x="490" y="360" width="120" height="30" as="geometry" />
        </mxCell>
        <mxCell id="x2RgvOCPO0mGEM-d00oI-13" value="" style="edgeStyle=orthogonalEdgeStyle;rounded=0;orthogonalLoop=1;jettySize=auto;html=1;entryX=0;entryY=0.5;entryDx=0;entryDy=0;exitX=0.25;exitY=1;exitDx=0;exitDy=0;" edge="1" parent="WscRIhe3EYZhFc4JABDw-1" source="x2RgvOCPO0mGEM-d00oI-0" target="x2RgvOCPO0mGEM-d00oI-12">
          <mxGeometry relative="1" as="geometry">
            <mxPoint x="460" y="348" as="sourcePoint" />
            <mxPoint x="415" y="385" as="targetPoint" />
            <Array as="points">
              <mxPoint x="449" y="375" />
            </Array>
          </mxGeometry>
        </mxCell>
        <mxCell id="x2RgvOCPO0mGEM-d00oI-17" value="输出回访报告" style="whiteSpace=wrap;html=1;verticalAlign=top;labelBackgroundColor=default;shadow=0;dashed=0;spacingTop=3;fontSize=10;" vertex="1" parent="WscRIhe3EYZhFc4JABDw-1">
          <mxGeometry x="740" y="480" width="120" height="30" as="geometry" />
        </mxCell>
      </root>
    </mxGraphModel>
  </diagram>
  <diagram id="0Ss8UAQJiG78LTjqv6U2" name="双重复核AI护航">
    <mxGraphModel dx="789" dy="440" grid="1" gridSize="10" guides="1" tooltips="1" connect="1" arrows="1" fold="1" page="1" pageScale="1" pageWidth="827" pageHeight="1169" math="0" shadow="0">
      <root>
        <mxCell id="0" />
        <mxCell id="1" parent="0" />
        <mxCell id="EfB9FnZ8-ophJ1HCATYV-1" style="edgeStyle=orthogonalEdgeStyle;rounded=0;orthogonalLoop=1;jettySize=auto;html=1;dashed=1;dashPattern=1 1;" edge="1" parent="1" source="EfB9FnZ8-ophJ1HCATYV-7" target="EfB9FnZ8-ophJ1HCATYV-8">
          <mxGeometry relative="1" as="geometry" />
        </mxCell>
        <mxCell id="EfB9FnZ8-ophJ1HCATYV-2" style="edgeStyle=orthogonalEdgeStyle;rounded=0;orthogonalLoop=1;jettySize=auto;html=1;dashed=1;dashPattern=1 1;" edge="1" parent="1" source="EfB9FnZ8-ophJ1HCATYV-7" target="EfB9FnZ8-ophJ1HCATYV-9">
          <mxGeometry relative="1" as="geometry" />
        </mxCell>
        <mxCell id="wB6aDfWMdU0TbzmlaCJ0-16" style="edgeStyle=orthogonalEdgeStyle;rounded=0;orthogonalLoop=1;jettySize=auto;html=1;entryX=1;entryY=0.5;entryDx=0;entryDy=0;" edge="1" parent="1" source="EfB9FnZ8-ophJ1HCATYV-7" target="wB6aDfWMdU0TbzmlaCJ0-12">
          <mxGeometry relative="1" as="geometry" />
        </mxCell>
        <mxCell id="wB6aDfWMdU0TbzmlaCJ0-17" value="分析" style="edgeLabel;html=1;align=center;verticalAlign=middle;resizable=0;points=[];" vertex="1" connectable="0" parent="wB6aDfWMdU0TbzmlaCJ0-16">
          <mxGeometry x="-0.0889" y="-1" relative="1" as="geometry">
            <mxPoint as="offset" />
          </mxGeometry>
        </mxCell>
        <mxCell id="wB6aDfWMdU0TbzmlaCJ0-19" style="edgeStyle=orthogonalEdgeStyle;rounded=0;orthogonalLoop=1;jettySize=auto;html=1;entryX=1;entryY=0.5;entryDx=0;entryDy=0;" edge="1" parent="1" source="EfB9FnZ8-ophJ1HCATYV-7" target="wB6aDfWMdU0TbzmlaCJ0-18">
          <mxGeometry relative="1" as="geometry">
            <Array as="points">
              <mxPoint x="570" y="246" />
              <mxPoint x="570" y="291" />
            </Array>
          </mxGeometry>
        </mxCell>
        <mxCell id="wB6aDfWMdU0TbzmlaCJ0-20" value="输出方案" style="edgeLabel;html=1;align=center;verticalAlign=middle;resizable=0;points=[];" vertex="1" connectable="0" parent="wB6aDfWMdU0TbzmlaCJ0-19">
          <mxGeometry x="0.3969" y="1" relative="1" as="geometry">
            <mxPoint as="offset" />
          </mxGeometry>
        </mxCell>
        <mxCell id="wB6aDfWMdU0TbzmlaCJ0-24" value="" style="edgeStyle=orthogonalEdgeStyle;rounded=0;orthogonalLoop=1;jettySize=auto;html=1;entryX=1;entryY=0.5;entryDx=0;entryDy=0;" edge="1" parent="1" source="EfB9FnZ8-ophJ1HCATYV-7" target="wB6aDfWMdU0TbzmlaCJ0-23">
          <mxGeometry relative="1" as="geometry">
            <Array as="points">
              <mxPoint x="625" y="365" />
            </Array>
          </mxGeometry>
        </mxCell>
        <mxCell id="wB6aDfWMdU0TbzmlaCJ0-25" value="数据自服务" style="edgeLabel;html=1;align=center;verticalAlign=middle;resizable=0;points=[];" vertex="1" connectable="0" parent="wB6aDfWMdU0TbzmlaCJ0-24">
          <mxGeometry x="0.6223" y="2" relative="1" as="geometry">
            <mxPoint as="offset" />
          </mxGeometry>
        </mxCell>
        <mxCell id="wB6aDfWMdU0TbzmlaCJ0-27" value="分析" style="edgeLabel;html=1;align=center;verticalAlign=middle;resizable=0;points=[];" vertex="1" connectable="0" parent="wB6aDfWMdU0TbzmlaCJ0-24">
          <mxGeometry x="-0.5683" y="1" relative="1" as="geometry">
            <mxPoint as="offset" />
          </mxGeometry>
        </mxCell>
        <mxCell id="EfB9FnZ8-ophJ1HCATYV-7" value="AI助理" style="image;sketch=0;aspect=fixed;html=1;points=[];align=center;fontSize=10;image=img/lib/mscae/Cognitive_Services.svg;" vertex="1" parent="1">
          <mxGeometry x="600" y="231" width="50" height="30" as="geometry" />
        </mxCell>
        <mxCell id="EfB9FnZ8-ophJ1HCATYV-8" value="知识库" style="sketch=0;shadow=0;dashed=0;html=1;strokeColor=none;fillColor=#3276bc;labelPosition=center;verticalLabelPosition=bottom;verticalAlign=top;outlineConnect=0;align=center;shape=mxgraph.office.databases.address_book_store;fontSize=10;" vertex="1" parent="1">
          <mxGeometry x="681.11" y="186" width="27.78" height="30" as="geometry" />
        </mxCell>
        <mxCell id="EfB9FnZ8-ophJ1HCATYV-9" value="大模型" style="sketch=0;outlineConnect=0;fontColor=#232F3E;gradientColor=none;fillColor=#3276bc;strokeColor=none;dashed=0;verticalLabelPosition=bottom;verticalAlign=top;align=center;html=1;fontSize=10;fontStyle=0;aspect=fixed;pointerEvents=1;shape=mxgraph.aws4.sagemaker_model;" vertex="1" parent="1">
          <mxGeometry x="680" y="276" width="30" height="30" as="geometry" />
        </mxCell>
        <mxCell id="EfB9FnZ8-ophJ1HCATYV-10" value="" style="points=[];aspect=fixed;html=1;align=center;shadow=0;dashed=0;fillColor=#3276bc;strokeColor=none;shape=mxgraph.alibaba_cloud.openapi_explorer;" vertex="1" parent="1">
          <mxGeometry x="615" y="158" width="30" height="30" as="geometry" />
        </mxCell>
        <mxCell id="EfB9FnZ8-ophJ1HCATYV-11" style="edgeStyle=orthogonalEdgeStyle;rounded=0;orthogonalLoop=1;jettySize=auto;html=1;entryX=0.343;entryY=1.021;entryDx=0;entryDy=0;entryPerimeter=0;" edge="1" parent="1" source="EfB9FnZ8-ophJ1HCATYV-7" target="EfB9FnZ8-ophJ1HCATYV-10">
          <mxGeometry relative="1" as="geometry" />
        </mxCell>
        <mxCell id="EfB9FnZ8-ophJ1HCATYV-12" value="能力" style="text;align=center;verticalAlign=middle;resizable=0;points=[];autosize=1;strokeColor=none;fillColor=none;fontSize=10;spacing=0;textShadow=0;html=1;labelBackgroundColor=default;" vertex="1" parent="1">
          <mxGeometry x="605" y="196" width="40" height="20" as="geometry" />
        </mxCell>
        <mxCell id="wB6aDfWMdU0TbzmlaCJ0-4" style="edgeStyle=orthogonalEdgeStyle;rounded=0;orthogonalLoop=1;jettySize=auto;html=1;entryX=0.5;entryY=0;entryDx=0;entryDy=0;" edge="1" parent="1" source="wB6aDfWMdU0TbzmlaCJ0-2" target="wB6aDfWMdU0TbzmlaCJ0-10">
          <mxGeometry relative="1" as="geometry">
            <mxPoint x="486" y="208" as="targetPoint" />
            <Array as="points">
              <mxPoint x="400" y="128" />
              <mxPoint x="520" y="128" />
              <mxPoint x="520" y="198" />
              <mxPoint x="414" y="198" />
            </Array>
          </mxGeometry>
        </mxCell>
        <mxCell id="wB6aDfWMdU0TbzmlaCJ0-5" value="状态分钟级复核" style="edgeLabel;html=1;align=center;verticalAlign=middle;resizable=0;points=[];" vertex="1" connectable="0" parent="wB6aDfWMdU0TbzmlaCJ0-4">
          <mxGeometry x="0.163" y="4" relative="1" as="geometry">
            <mxPoint as="offset" />
          </mxGeometry>
        </mxCell>
        <mxCell id="wB6aDfWMdU0TbzmlaCJ0-2" value="工单" style="whiteSpace=wrap;html=1;verticalAlign=top;labelBackgroundColor=default;shadow=0;dashed=0;spacingTop=3;fontSize=10;" vertex="1" parent="1">
          <mxGeometry x="340" y="148" width="120" height="30" as="geometry" />
        </mxCell>
        <mxCell id="wB6aDfWMdU0TbzmlaCJ0-6" value="" style="shape=mxgraph.signs.healthcare.eye;html=1;pointerEvents=1;fillColor=#007FFF;strokeColor=none;verticalLabelPosition=bottom;verticalAlign=top;align=center;" vertex="1" parent="1">
          <mxGeometry x="370" y="191" width="36" height="20" as="geometry" />
        </mxCell>
        <mxCell id="wB6aDfWMdU0TbzmlaCJ0-8" value="指标1" style="whiteSpace=wrap;html=1;verticalAlign=top;labelBackgroundColor=default;shadow=0;dashed=0;spacingTop=3;fontSize=10;" vertex="1" parent="1">
          <mxGeometry x="314" y="220" width="40" height="30" as="geometry" />
        </mxCell>
        <mxCell id="wB6aDfWMdU0TbzmlaCJ0-9" value="指标2" style="whiteSpace=wrap;html=1;verticalAlign=top;labelBackgroundColor=default;shadow=0;dashed=0;spacingTop=3;fontSize=10;" vertex="1" parent="1">
          <mxGeometry x="354" y="220" width="40" height="30" as="geometry" />
        </mxCell>
        <mxCell id="wB6aDfWMdU0TbzmlaCJ0-10" value="指标3" style="whiteSpace=wrap;html=1;verticalAlign=top;labelBackgroundColor=default;shadow=0;dashed=0;spacingTop=3;fontSize=10;" vertex="1" parent="1">
          <mxGeometry x="394" y="220" width="40" height="30" as="geometry" />
        </mxCell>
        <mxCell id="wB6aDfWMdU0TbzmlaCJ0-11" value="……" style="whiteSpace=wrap;html=1;verticalAlign=top;labelBackgroundColor=default;shadow=0;dashed=0;spacingTop=3;fontSize=10;" vertex="1" parent="1">
          <mxGeometry x="434" y="220" width="40" height="30" as="geometry" />
        </mxCell>
        <mxCell id="wB6aDfWMdU0TbzmlaCJ0-12" value="指标N" style="whiteSpace=wrap;html=1;verticalAlign=top;labelBackgroundColor=default;shadow=0;dashed=0;spacingTop=3;fontSize=10;" vertex="1" parent="1">
          <mxGeometry x="474" y="220" width="40" height="30" as="geometry" />
        </mxCell>
        <mxCell id="wB6aDfWMdU0TbzmlaCJ0-18" value="解决方案" style="whiteSpace=wrap;html=1;verticalAlign=top;labelBackgroundColor=default;shadow=0;dashed=0;spacingTop=3;fontSize=10;" vertex="1" parent="1">
          <mxGeometry x="350" y="276" width="120" height="30" as="geometry" />
        </mxCell>
        <mxCell id="wB6aDfWMdU0TbzmlaCJ0-23" value="工单统计和分析结果" style="whiteSpace=wrap;html=1;fontSize=10;verticalAlign=top;labelBackgroundColor=default;sketch=0;" vertex="1" parent="1">
          <mxGeometry x="300" y="350" width="120" height="30" as="geometry" />
        </mxCell>
        <mxCell id="wB6aDfWMdU0TbzmlaCJ0-26" value="全量工单" style="whiteSpace=wrap;html=1;verticalAlign=top;labelBackgroundColor=default;shadow=0;dashed=0;spacingTop=3;fontSize=10;" vertex="1" parent="1">
          <mxGeometry x="560" y="350" width="120" height="30" as="geometry" />
        </mxCell>
      </root>
    </mxGraphModel>
  </diagram>
  <diagram id="oUDJRLhbdwTceZK406BW" name="端到端问题AI溯源">
    <mxGraphModel dx="1026" dy="572" grid="1" gridSize="10" guides="1" tooltips="1" connect="1" arrows="1" fold="1" page="1" pageScale="1" pageWidth="827" pageHeight="1169" math="0" shadow="0">
      <root>
        <mxCell id="0" />
        <mxCell id="1" parent="0" />
        <mxCell id="uBovP6FWKE3pzb6nXIu7-1" style="edgeStyle=orthogonalEdgeStyle;rounded=0;orthogonalLoop=1;jettySize=auto;html=1;dashed=1;dashPattern=1 1;" edge="1" parent="1" source="uBovP6FWKE3pzb6nXIu7-7" target="uBovP6FWKE3pzb6nXIu7-8">
          <mxGeometry relative="1" as="geometry" />
        </mxCell>
        <mxCell id="uBovP6FWKE3pzb6nXIu7-2" style="edgeStyle=orthogonalEdgeStyle;rounded=0;orthogonalLoop=1;jettySize=auto;html=1;dashed=1;dashPattern=1 1;" edge="1" parent="1" source="uBovP6FWKE3pzb6nXIu7-7" target="uBovP6FWKE3pzb6nXIu7-9">
          <mxGeometry relative="1" as="geometry" />
        </mxCell>
        <mxCell id="uBovP6FWKE3pzb6nXIu7-3" style="edgeStyle=orthogonalEdgeStyle;rounded=0;orthogonalLoop=1;jettySize=auto;html=1;" edge="1" parent="1" source="uBovP6FWKE3pzb6nXIu7-7" target="uBovP6FWKE3pzb6nXIu7-15">
          <mxGeometry relative="1" as="geometry">
            <mxPoint x="310" y="240" as="targetPoint" />
            <Array as="points" />
          </mxGeometry>
        </mxCell>
        <mxCell id="uBovP6FWKE3pzb6nXIu7-4" value="画像分析" style="edgeLabel;html=1;align=center;verticalAlign=middle;resizable=0;points=[];fontSize=10;" vertex="1" connectable="0" parent="uBovP6FWKE3pzb6nXIu7-3">
          <mxGeometry x="0.5775" y="2" relative="1" as="geometry">
            <mxPoint x="-25" y="2" as="offset" />
          </mxGeometry>
        </mxCell>
        <mxCell id="uBovP6FWKE3pzb6nXIu7-5" style="edgeStyle=orthogonalEdgeStyle;rounded=0;orthogonalLoop=1;jettySize=auto;html=1;entryX=0;entryY=0.5;entryDx=0;entryDy=0;" edge="1" parent="1" source="uBovP6FWKE3pzb6nXIu7-7" target="uBovP6FWKE3pzb6nXIu7-25">
          <mxGeometry relative="1" as="geometry">
            <mxPoint x="235" y="500" as="targetPoint" />
            <Array as="points">
              <mxPoint x="230" y="495" />
            </Array>
          </mxGeometry>
        </mxCell>
        <mxCell id="uBovP6FWKE3pzb6nXIu7-6" value="结合Ivr平台自动发起回访" style="edgeLabel;html=1;align=center;verticalAlign=middle;resizable=0;points=[];" vertex="1" connectable="0" parent="uBovP6FWKE3pzb6nXIu7-5">
          <mxGeometry x="0.4503" y="3" relative="1" as="geometry">
            <mxPoint as="offset" />
          </mxGeometry>
        </mxCell>
        <mxCell id="uBovP6FWKE3pzb6nXIu7-7" value="AI助理" style="image;sketch=0;aspect=fixed;html=1;points=[];align=center;fontSize=10;image=img/lib/mscae/Cognitive_Services.svg;" vertex="1" parent="1">
          <mxGeometry x="210" y="225" width="50" height="30" as="geometry" />
        </mxCell>
        <mxCell id="uBovP6FWKE3pzb6nXIu7-8" value="知识库" style="sketch=0;shadow=0;dashed=0;html=1;strokeColor=none;fillColor=#3276bc;labelPosition=center;verticalLabelPosition=bottom;verticalAlign=top;outlineConnect=0;align=center;shape=mxgraph.office.databases.address_book_store;fontSize=10;" vertex="1" parent="1">
          <mxGeometry x="161.11" y="180" width="27.78" height="30" as="geometry" />
        </mxCell>
        <mxCell id="uBovP6FWKE3pzb6nXIu7-9" value="大模型" style="sketch=0;outlineConnect=0;fontColor=#232F3E;gradientColor=none;fillColor=#3276bc;strokeColor=none;dashed=0;verticalLabelPosition=bottom;verticalAlign=top;align=center;html=1;fontSize=10;fontStyle=0;aspect=fixed;pointerEvents=1;shape=mxgraph.aws4.sagemaker_model;" vertex="1" parent="1">
          <mxGeometry x="160" y="270" width="30" height="30" as="geometry" />
        </mxCell>
        <mxCell id="uBovP6FWKE3pzb6nXIu7-10" value="" style="points=[];aspect=fixed;html=1;align=center;shadow=0;dashed=0;fillColor=#3276bc;strokeColor=none;shape=mxgraph.alibaba_cloud.openapi_explorer;" vertex="1" parent="1">
          <mxGeometry x="225" y="152" width="30" height="30" as="geometry" />
        </mxCell>
        <mxCell id="uBovP6FWKE3pzb6nXIu7-11" style="edgeStyle=orthogonalEdgeStyle;rounded=0;orthogonalLoop=1;jettySize=auto;html=1;entryX=0.343;entryY=1.021;entryDx=0;entryDy=0;entryPerimeter=0;" edge="1" parent="1" source="uBovP6FWKE3pzb6nXIu7-7" target="uBovP6FWKE3pzb6nXIu7-10">
          <mxGeometry relative="1" as="geometry" />
        </mxCell>
        <mxCell id="uBovP6FWKE3pzb6nXIu7-12" value="能力" style="text;align=center;verticalAlign=middle;resizable=0;points=[];autosize=1;strokeColor=none;fillColor=none;fontSize=10;spacing=0;textShadow=0;html=1;labelBackgroundColor=default;" vertex="1" parent="1">
          <mxGeometry x="215" y="190" width="40" height="20" as="geometry" />
        </mxCell>
        <mxCell id="uBovP6FWKE3pzb6nXIu7-13" value="" style="edgeStyle=orthogonalEdgeStyle;rounded=0;orthogonalLoop=1;jettySize=auto;html=1;" edge="1" parent="1" source="uBovP6FWKE3pzb6nXIu7-15" target="uBovP6FWKE3pzb6nXIu7-18">
          <mxGeometry relative="1" as="geometry" />
        </mxCell>
        <mxCell id="uBovP6FWKE3pzb6nXIu7-14" value="画像矩阵池" style="edgeLabel;html=1;align=center;verticalAlign=middle;resizable=0;points=[];fontSize=10;" vertex="1" connectable="0" parent="uBovP6FWKE3pzb6nXIu7-13">
          <mxGeometry x="0.0667" y="2" relative="1" as="geometry">
            <mxPoint as="offset" />
          </mxGeometry>
        </mxCell>
        <mxCell id="uBovP6FWKE3pzb6nXIu7-15" value="" style="sketch=0;outlineConnect=0;fontColor=#232F3E;gradientColor=none;fillColor=#232F3D;strokeColor=none;dashed=0;verticalLabelPosition=bottom;verticalAlign=top;align=center;html=1;fontSize=12;fontStyle=0;aspect=fixed;pointerEvents=1;shape=mxgraph.aws4.users;" vertex="1" parent="1">
          <mxGeometry x="330" y="225" width="30" height="30" as="geometry" />
        </mxCell>
        <mxCell id="uBovP6FWKE3pzb6nXIu7-16" style="edgeStyle=orthogonalEdgeStyle;rounded=0;orthogonalLoop=1;jettySize=auto;html=1;entryX=0;entryY=0.5;entryDx=0;entryDy=0;" edge="1" parent="1" source="uBovP6FWKE3pzb6nXIu7-18" target="uBovP6FWKE3pzb6nXIu7-20">
          <mxGeometry relative="1" as="geometry">
            <mxPoint x="572.5238095238094" y="330" as="targetPoint" />
          </mxGeometry>
        </mxCell>
        <mxCell id="uBovP6FWKE3pzb6nXIu7-17" value="用户标注" style="edgeLabel;html=1;align=center;verticalAlign=middle;resizable=0;points=[];fontSize=10;" vertex="1" connectable="0" parent="uBovP6FWKE3pzb6nXIu7-16">
          <mxGeometry x="-0.123" y="-2" relative="1" as="geometry">
            <mxPoint as="offset" />
          </mxGeometry>
        </mxCell>
        <mxCell id="uBovP6FWKE3pzb6nXIu7-18" value="" style="image;aspect=fixed;perimeter=ellipsePerimeter;html=1;align=center;shadow=0;dashed=0;spacingTop=3;image=img/lib/active_directory/database_cube.svg;" vertex="1" parent="1">
          <mxGeometry x="322.5" y="290" width="45" height="50" as="geometry" />
        </mxCell>
        <mxCell id="uBovP6FWKE3pzb6nXIu7-19" value="" style="edgeStyle=orthogonalEdgeStyle;rounded=0;orthogonalLoop=1;jettySize=auto;html=1;entryX=1;entryY=0.5;entryDx=0;entryDy=0;" edge="1" parent="1" source="uBovP6FWKE3pzb6nXIu7-20" target="uBovP6FWKE3pzb6nXIu7-22">
          <mxGeometry relative="1" as="geometry">
            <Array as="points">
              <mxPoint x="450" y="375" />
            </Array>
          </mxGeometry>
        </mxCell>
        <mxCell id="uBovP6FWKE3pzb6nXIu7-20" value="" style="image;aspect=fixed;perimeter=ellipsePerimeter;html=1;align=center;shadow=0;dashed=0;spacingTop=3;image=img/lib/active_directory/users.svg;" vertex="1" parent="1">
          <mxGeometry x="440" y="290" width="33" height="50" as="geometry" />
        </mxCell>
        <mxCell id="uBovP6FWKE3pzb6nXIu7-21" value="" style="edgeStyle=orthogonalEdgeStyle;rounded=0;orthogonalLoop=1;jettySize=auto;html=1;" edge="1" parent="1" source="uBovP6FWKE3pzb6nXIu7-22" target="uBovP6FWKE3pzb6nXIu7-23">
          <mxGeometry relative="1" as="geometry" />
        </mxCell>
        <mxCell id="uBovP6FWKE3pzb6nXIu7-22" value="用户画像输出" style="whiteSpace=wrap;html=1;verticalAlign=top;labelBackgroundColor=default;shadow=0;dashed=0;spacingTop=3;fontSize=10;" vertex="1" parent="1">
          <mxGeometry x="285" y="360" width="120" height="30" as="geometry" />
        </mxCell>
        <mxCell id="uBovP6FWKE3pzb6nXIu7-23" value="满意度提升建议" style="whiteSpace=wrap;html=1;verticalAlign=top;labelBackgroundColor=default;shadow=0;dashed=0;spacingTop=3;fontSize=10;" vertex="1" parent="1">
          <mxGeometry x="285" y="420" width="120" height="30" as="geometry" />
        </mxCell>
        <mxCell id="uBovP6FWKE3pzb6nXIu7-24" value="" style="edgeStyle=orthogonalEdgeStyle;rounded=0;orthogonalLoop=1;jettySize=auto;html=1;" edge="1" parent="1" source="uBovP6FWKE3pzb6nXIu7-25" target="uBovP6FWKE3pzb6nXIu7-30">
          <mxGeometry relative="1" as="geometry" />
        </mxCell>
        <mxCell id="uBovP6FWKE3pzb6nXIu7-25" value="自动回访" style="whiteSpace=wrap;html=1;verticalAlign=top;labelBackgroundColor=default;shadow=0;dashed=0;spacingTop=3;fontSize=10;" vertex="1" parent="1">
          <mxGeometry x="570" y="480" width="120" height="30" as="geometry" />
        </mxCell>
        <mxCell id="uBovP6FWKE3pzb6nXIu7-26" style="edgeStyle=orthogonalEdgeStyle;rounded=0;orthogonalLoop=1;jettySize=auto;html=1;entryX=0;entryY=0.5;entryDx=0;entryDy=0;" edge="1" parent="1" source="uBovP6FWKE3pzb6nXIu7-28" target="uBovP6FWKE3pzb6nXIu7-25">
          <mxGeometry relative="1" as="geometry" />
        </mxCell>
        <mxCell id="uBovP6FWKE3pzb6nXIu7-27" value="结合回访策略" style="edgeLabel;html=1;align=center;verticalAlign=middle;resizable=0;points=[];" vertex="1" connectable="0" parent="uBovP6FWKE3pzb6nXIu7-26">
          <mxGeometry x="-0.3728" y="1" relative="1" as="geometry">
            <mxPoint as="offset" />
          </mxGeometry>
        </mxCell>
        <mxCell id="uBovP6FWKE3pzb6nXIu7-28" value="回访策略" style="whiteSpace=wrap;html=1;verticalAlign=top;labelBackgroundColor=default;shadow=0;dashed=0;spacingTop=3;fontSize=10;" vertex="1" parent="1">
          <mxGeometry x="490" y="360" width="120" height="30" as="geometry" />
        </mxCell>
        <mxCell id="uBovP6FWKE3pzb6nXIu7-29" value="" style="edgeStyle=orthogonalEdgeStyle;rounded=0;orthogonalLoop=1;jettySize=auto;html=1;entryX=0;entryY=0.5;entryDx=0;entryDy=0;exitX=0.25;exitY=1;exitDx=0;exitDy=0;" edge="1" parent="1" source="uBovP6FWKE3pzb6nXIu7-20" target="uBovP6FWKE3pzb6nXIu7-28">
          <mxGeometry relative="1" as="geometry">
            <mxPoint x="460" y="348" as="sourcePoint" />
            <mxPoint x="415" y="385" as="targetPoint" />
            <Array as="points">
              <mxPoint x="449" y="375" />
            </Array>
          </mxGeometry>
        </mxCell>
        <mxCell id="uBovP6FWKE3pzb6nXIu7-30" value="输出回访报告" style="whiteSpace=wrap;html=1;verticalAlign=top;labelBackgroundColor=default;shadow=0;dashed=0;spacingTop=3;fontSize=10;" vertex="1" parent="1">
          <mxGeometry x="740" y="480" width="120" height="30" as="geometry" />
        </mxCell>
      </root>
    </mxGraphModel>
  </diagram>
</mxfile>
